<svg width="81" height="15" viewBox="0 0 81 15" fill="none" xmlns="http://www.w3.org/2000/svg">
<path d="M13.3574 4.54717C14.6627 4.54717 15.6967 4.92453 16.4592 5.67925C17.2347 6.42138 17.6224 7.54088 17.6224 9.03774V14.8491H14.5981V9.49057C14.5981 8.68554 14.4236 8.08805 14.0747 7.69811C13.7386 7.2956 13.254 7.09434 12.6207 7.09434C11.9098 7.09434 11.3476 7.32076 10.934 7.77359C10.5204 8.21384 10.3137 8.87422 10.3137 9.75472V14.8491H7.28935V9.49057C7.28935 7.89308 6.63021 7.09434 5.31192 7.09434C4.61401 7.09434 4.05826 7.32076 3.64468 7.77359C3.2311 8.21384 3.02431 8.87422 3.02431 9.75472V14.8491H0V4.69811H2.8886V5.86793C3.27633 5.44025 3.74807 5.11321 4.30382 4.88679C4.87249 4.66038 5.49286 4.54717 6.16493 4.54717C6.90162 4.54717 7.56723 4.69183 8.16175 4.98113C8.75627 5.25786 9.23447 5.66667 9.59636 6.20755C10.0229 5.67925 10.5592 5.27044 11.2054 4.98113C11.8646 4.69183 12.5819 4.54717 13.3574 4.54717Z" fill="#313131"/>
<path d="M24.5401 4.54717C26.1556 4.54717 27.3964 4.92453 28.2623 5.67925C29.1282 6.42138 29.5612 7.54717 29.5612 9.0566V14.8491H26.7308V13.5849C26.1621 14.5283 25.1023 15 23.5514 15C22.75 15 22.0521 14.8679 21.4576 14.6038C20.876 14.3396 20.4301 13.9748 20.1199 13.5094C19.8097 13.044 19.6547 12.5157 19.6547 11.9245C19.6547 10.9811 20.0165 10.239 20.7403 9.69811C21.477 9.15723 22.6079 8.88679 24.133 8.88679H26.5369C26.5369 8.24528 26.3366 7.75472 25.9359 7.4151C25.5353 7.06289 24.9343 6.88679 24.133 6.88679C23.5772 6.88679 23.0279 6.97484 22.4851 7.15094C21.9552 7.31447 21.5028 7.54088 21.128 7.83019L20.0424 5.77359C20.6111 5.38365 21.2896 5.08176 22.078 4.86792C22.8793 4.65409 23.7 4.54717 24.5401 4.54717ZM24.3074 13.0189C24.8244 13.0189 25.2832 12.9057 25.6839 12.6792C26.0845 12.4403 26.3689 12.0943 26.5369 11.6415V10.6038H24.4625C23.2218 10.6038 22.6014 11 22.6014 11.7925C22.6014 12.1698 22.75 12.4717 23.0473 12.6981C23.3575 12.912 23.7775 13.0189 24.3074 13.0189Z" fill="#313131"/>
<path d="M35.1869 6.03774C35.5488 5.54717 36.0335 5.1761 36.6409 4.92453C37.2613 4.67296 37.9721 4.54717 38.7735 4.54717V7.26415C38.4374 7.23899 38.2112 7.22642 38.0949 7.22642C37.229 7.22642 36.5505 7.46541 36.0593 7.9434C35.5682 8.40881 35.3226 9.11321 35.3226 10.0566V14.8491H32.2983V4.69811H35.1869V6.03774Z" fill="#313131"/>
<path d="M40.5717 4.69811H43.596V14.8491H40.5717V4.69811ZM42.0839 3.28302C41.5281 3.28302 41.0758 3.12579 40.7268 2.81132C40.3778 2.49686 40.2034 2.10692 40.2034 1.64151C40.2034 1.1761 40.3778 0.786164 40.7268 0.471699C41.0758 0.157233 41.5281 0 42.0839 0C42.6396 0 43.092 0.150944 43.4409 0.452831C43.7899 0.754718 43.9644 1.13208 43.9644 1.58491C43.9644 2.07547 43.7899 2.48428 43.4409 2.81132C43.092 3.12579 42.6396 3.28302 42.0839 3.28302Z" fill="#313131"/>
<path d="M50.6097 4.54717C52.2253 4.54717 53.466 4.92453 54.3319 5.67925C55.1979 6.42138 55.6308 7.54717 55.6308 9.0566V14.8491H52.8004V13.5849C52.2317 14.5283 51.1719 15 49.621 15C48.8197 15 48.1218 14.8679 47.5273 14.6038C46.9457 14.3396 46.4998 13.9748 46.1896 13.5094C45.8794 13.044 45.7243 12.5157 45.7243 11.9245C45.7243 10.9811 46.0862 10.239 46.8099 9.69811C47.5466 9.15723 48.6775 8.88679 50.2026 8.88679H52.6065C52.6065 8.24528 52.4062 7.75472 52.0056 7.4151C51.6049 7.06289 51.0039 6.88679 50.2026 6.88679C49.6469 6.88679 49.0976 6.97484 48.5547 7.15094C48.0248 7.31447 47.5725 7.54088 47.1977 7.83019L46.112 5.77359C46.6807 5.38365 47.3592 5.08176 48.1476 4.86792C48.9489 4.65409 49.7696 4.54717 50.6097 4.54717ZM50.3771 13.0189C50.8941 13.0189 51.3529 12.9057 51.7535 12.6792C52.1542 12.4403 52.4385 12.0943 52.6065 11.6415V10.6038H50.5322C49.2914 10.6038 48.6711 11 48.6711 11.7925C48.6711 12.1698 48.8197 12.4717 49.117 12.6981C49.4271 12.912 49.8472 13.0189 50.3771 13.0189Z" fill="#313131"/>
<path d="M64.7074 4.54717C65.9998 4.54717 67.0402 4.92453 67.8286 5.67925C68.63 6.43396 69.0306 7.55346 69.0306 9.03774V14.8491H66.0063V9.49057C66.0063 8.68554 65.8254 8.08805 65.4635 7.69811C65.1016 7.2956 64.5782 7.09434 63.8932 7.09434C63.1306 7.09434 62.5232 7.32705 62.0708 7.79245C61.6185 8.24528 61.3923 8.92453 61.3923 9.83019V14.8491H58.368V4.69811H61.2566V5.88679C61.6572 5.45912 62.1548 5.13208 62.7494 4.90566C63.3439 4.66667 63.9966 4.54717 64.7074 4.54717Z" fill="#313131"/>
<path d="M75.9789 4.54717C77.5944 4.54717 78.8352 4.92453 79.7011 5.67925C80.567 6.42138 81 7.54717 81 9.0566V14.8491H78.1696V13.5849C77.6009 14.5283 76.5411 15 74.9902 15C74.1888 15 73.4909 14.8679 72.8964 14.6038C72.3148 14.3396 71.8689 13.9748 71.5587 13.5094C71.2485 13.044 71.0935 12.5157 71.0935 11.9245C71.0935 10.9811 71.4553 10.239 72.1791 9.69811C72.9158 9.15723 74.0467 8.88679 75.5718 8.88679H77.9757C77.9757 8.24528 77.7754 7.75472 77.3747 7.4151C76.9741 7.06289 76.3731 6.88679 75.5718 6.88679C75.016 6.88679 74.4667 6.97484 73.9239 7.15094C73.394 7.31447 72.9416 7.54088 72.5668 7.83019L71.4812 5.77359C72.0499 5.38365 72.7284 5.08176 73.5168 4.86792C74.3181 4.65409 75.1388 4.54717 75.9789 4.54717ZM75.7462 13.0189C76.2632 13.0189 76.722 12.9057 77.1227 12.6792C77.5233 12.4403 77.8077 12.0943 77.9757 11.6415V10.6038H75.9013C74.6606 10.6038 74.0402 11 74.0402 11.7925C74.0402 12.1698 74.1889 12.4717 74.4861 12.6981C74.7963 12.912 75.2163 13.0189 75.7462 13.0189Z" fill="#313131"/>
</svg>
